<svg width="221" height="267" viewBox="0 0 221 267" fill="none" xmlns="http://www.w3.org/2000/svg">
<g filter="url(#filter0_d_0_136)">
<rect x="25" y="17" width="81" height="111" rx="4" fill="white"/>
</g>
<mask id="mask0_0_136" style="mask-type:luminance" maskUnits="userSpaceOnUse" x="25" y="17" width="81" height="111">
<rect x="25" y="17" width="81" height="111" rx="4" fill="white"/>
</mask>
<g mask="url(#mask0_0_136)">
<path fill-rule="evenodd" clip-rule="evenodd" d="M11.6833 103.461L45.4308 92.087L65.5 62.683L85.9308 69.1522L113.113 27.2412V113.631L11.6833 113.272V103.461Z" fill="url(#paint0_linear_0_136)"/>
<path d="M113.474 26.0203V113.631H112.751L112.751 28.4613L86.0848 69.5779L65.6471 63.1066L45.6619 92.3883L11.7995 103.801L11.5671 103.12L45.1997 91.7852L65.3523 62.2591L85.7767 68.7263L113.474 26.0203Z" fill="#5175FF"/>
<rect opacity="0.152227" x="65.5" y="17" width="0.361607" height="89.8058" fill="#5175FF"/>
<rect opacity="0.152227" x="45.25" y="17" width="0.361607" height="89.8058" fill="#5175FF"/>
<rect opacity="0.152227" x="86.1116" y="17" width="0.361607" height="89.8058" fill="#5175FF"/>
<ellipse cx="65.5" cy="62.6214" rx="2.16964" ry="2.15534" fill="#5175FF"/>
<path fill-rule="evenodd" clip-rule="evenodd" d="M72.0089 62.6213C72.0089 59.0502 69.0948 56.1553 65.5 56.1553C61.9052 56.1553 58.9911 59.0502 58.9911 62.6213C58.9911 66.1924 61.9052 69.0873 65.5 69.0873C69.0948 69.0873 72.0089 66.1924 72.0089 62.6213ZM59.3527 62.6213C59.3527 59.2486 62.1049 56.5145 65.5 56.5145C68.8951 56.5145 71.6473 59.2486 71.6473 62.6213C71.6473 65.994 68.8951 68.7281 65.5 68.7281C62.1049 68.7281 59.3527 65.994 59.3527 62.6213Z" fill="#5175FF"/>
<ellipse cx="45.25" cy="92.0777" rx="2.16964" ry="2.15534" fill="#5175FF"/>
<ellipse cx="86.1117" cy="69.0875" rx="2.16964" ry="2.15534" fill="#5175FF"/>
<ellipse cx="106" cy="38.5533" rx="2.16964" ry="2.15534" fill="#5175FF"/>
<ellipse cx="25" cy="98.9029" rx="2.16964" ry="2.15534" fill="#5175FF"/>
<path opacity="0.5" fill-rule="evenodd" clip-rule="evenodd" d="M63.2742 121.981C63.0922 122.146 62.8071 122.228 62.4186 122.228L62.3798 121.727C62.7617 121.727 62.9527 121.565 62.9527 121.242V118.64H63.547V121.206C63.547 121.558 63.4561 121.817 63.2742 121.981ZM65.0027 121.507C64.8985 121.551 64.7842 121.572 64.6599 121.572C64.4631 121.572 64.3022 121.52 64.1773 121.414C64.0523 121.309 63.9899 121.172 63.9899 121.003C63.9899 120.875 64.0271 120.759 64.1015 120.658C64.176 120.556 64.2786 120.476 64.4094 120.417C64.5402 120.357 64.6897 120.328 64.858 120.328C64.9111 120.328 64.9671 120.331 65.026 120.338C65.085 120.344 65.1442 120.352 65.2038 120.363C65.161 120.153 65.0076 120.048 64.7434 120.048C64.5868 120.048 64.4295 120.107 64.2715 120.224L64.0792 119.755C64.2139 119.691 64.3466 119.643 64.4774 119.612C64.6081 119.581 64.7324 119.566 64.8503 119.566C65.038 119.566 65.2008 119.601 65.3387 119.671C65.4766 119.741 65.5838 119.84 65.6602 119.968C65.7366 120.096 65.7748 120.246 65.7748 120.419V121.534H65.3048L65.2679 121.327C65.1953 121.403 65.107 121.463 65.0027 121.507ZM64.8211 121.09C64.7396 121.09 64.6739 121.07 64.624 121.031C64.5742 120.992 64.5492 120.94 64.5492 120.876C64.5492 120.805 64.58 120.75 64.6415 120.712C64.703 120.673 64.7888 120.654 64.8988 120.654C64.9519 120.654 65.006 120.658 65.061 120.667C65.116 120.676 65.1675 120.689 65.2154 120.704V120.743C65.2154 120.84 65.1775 120.923 65.1018 120.99C65.026 121.057 64.9325 121.09 64.8211 121.09ZM66.8003 120.556V121.534H66.2409V119.604H66.7303L66.7537 119.84C66.83 119.752 66.9217 119.685 67.0285 119.637C67.1353 119.59 67.2528 119.566 67.381 119.566C67.6076 119.566 67.7882 119.64 67.9229 119.789C68.0575 119.937 68.1249 120.144 68.1249 120.409V121.534H67.5636V120.517C67.5636 120.204 67.4457 120.048 67.2101 120.048C67.0884 120.048 66.9896 120.093 66.9139 120.181C66.8381 120.27 66.8003 120.395 66.8003 120.556Z" fill="#747B95"/>
<path opacity="0.5" fill-rule="evenodd" clip-rule="evenodd" d="M42.7231 121.538C43.2954 121.538 43.735 121.411 44.0419 121.158C44.3488 120.904 44.5022 120.547 44.5022 120.087C44.5022 119.628 44.3488 119.272 44.0419 119.021C43.735 118.769 43.2954 118.644 42.7231 118.644H41.8064V121.538H42.7231ZM42.7367 121.017H42.4007V119.164H42.7367C43.1122 119.164 43.4 119.245 43.6 119.406C43.8001 119.566 43.9001 119.793 43.9001 120.087C43.9001 120.381 43.8001 120.61 43.6 120.773C43.4 120.935 43.1122 121.017 42.7367 121.017ZM46.2337 121.507C46.0867 121.551 45.9459 121.572 45.8113 121.572C45.5963 121.572 45.4066 121.529 45.2422 121.442C45.0778 121.355 44.9489 121.236 44.8557 121.083C44.7625 120.931 44.7159 120.758 44.7159 120.563C44.7159 120.372 44.7605 120.201 44.8499 120.051C44.9392 119.901 45.0612 119.783 45.216 119.696C45.3707 119.609 45.5465 119.566 45.7433 119.566C45.9388 119.566 46.1126 119.609 46.2648 119.695C46.4169 119.781 46.537 119.9 46.6251 120.05C46.7131 120.201 46.7571 120.373 46.7571 120.567V120.735H45.2422C45.2772 120.842 45.3416 120.929 45.4354 120.996C45.5293 121.062 45.6391 121.096 45.7647 121.096C45.8993 121.096 46.011 121.074 46.0997 121.031C46.1884 120.988 46.269 120.932 46.3415 120.864L46.6794 121.266C46.5292 121.383 46.3807 121.463 46.2337 121.507ZM46.1822 120.426H45.2305C45.2577 120.316 45.315 120.225 45.4024 120.154C45.4898 120.084 45.5931 120.048 45.7122 120.048C45.83 120.048 45.931 120.083 46.0152 120.152C46.0994 120.222 46.155 120.313 46.1822 120.426ZM48.4906 121.497C48.3591 121.547 48.2164 121.572 48.0623 121.572C47.8564 121.572 47.6729 121.529 47.5117 121.442C47.3505 121.355 47.2233 121.236 47.13 121.085C47.0368 120.934 46.9902 120.762 46.9902 120.569C46.9902 120.376 47.0368 120.204 47.13 120.053C47.2233 119.902 47.3505 119.783 47.5117 119.696C47.6729 119.609 47.8564 119.566 48.0623 119.566C48.2164 119.566 48.3591 119.591 48.4906 119.641C48.622 119.691 48.735 119.761 48.8295 119.851L48.4352 120.22C48.342 120.105 48.2177 120.048 48.0623 120.048C47.9199 120.048 47.802 120.098 47.7088 120.197C47.6156 120.296 47.569 120.42 47.569 120.569C47.569 120.718 47.6156 120.842 47.7088 120.941C47.802 121.041 47.9199 121.09 48.0623 121.09C48.2177 121.09 48.342 121.033 48.4352 120.918L48.8295 121.287C48.735 121.377 48.622 121.447 48.4906 121.497Z" fill="#747B95"/>
<path opacity="0.5" fill-rule="evenodd" clip-rule="evenodd" d="M22.0507 119.585V121.534H21.468V118.64H22.0585L23.554 120.585V118.64H24.1483V121.534H23.5481L22.0507 119.585ZM26.0866 121.442C25.9313 121.529 25.7539 121.572 25.5545 121.572C25.3551 121.572 25.1773 121.529 25.0213 121.442C24.8653 121.355 24.7423 121.236 24.6523 121.085C24.5623 120.934 24.5173 120.762 24.5173 120.569C24.5173 120.376 24.5623 120.204 24.6523 120.053C24.7423 119.902 24.8653 119.783 25.0213 119.696C25.1773 119.609 25.3551 119.566 25.5545 119.566C25.7539 119.566 25.9313 119.609 26.0866 119.696C26.242 119.783 26.3647 119.902 26.4547 120.053C26.5447 120.204 26.5897 120.376 26.5897 120.569C26.5897 120.762 26.5447 120.934 26.4547 121.085C26.3647 121.236 26.242 121.355 26.0866 121.442ZM25.5545 121.09C25.412 121.09 25.2942 121.04 25.201 120.941C25.1077 120.842 25.0611 120.718 25.0611 120.569C25.0611 120.42 25.1077 120.296 25.201 120.197C25.2942 120.098 25.412 120.048 25.5545 120.048C25.6969 120.048 25.8147 120.098 25.9079 120.197C26.0012 120.296 26.0478 120.42 26.0478 120.569C26.0478 120.718 26.0012 120.842 25.9079 120.941C25.8147 121.04 25.6969 121.09 25.5545 121.09ZM28.2153 119.604H28.8038L28.0366 121.534H27.4928L26.6868 119.604H27.2947L27.6462 120.544C27.6644 120.593 27.6848 120.664 27.7074 120.758C27.7301 120.852 27.7479 120.937 27.7608 121.013H27.7686C27.7841 120.937 27.8039 120.853 27.8278 120.76C27.8518 120.667 27.8728 120.595 27.891 120.544L28.2153 119.604Z" fill="#747B95"/>
<path opacity="0.5" fill-rule="evenodd" clip-rule="evenodd" d="M83.092 121.534V120.307H84.2146V119.786H83.092V119.161H84.2923V118.64H82.4977V121.534H83.092ZM85.6985 121.572C85.8331 121.572 85.9739 121.551 86.1209 121.507C86.2679 121.463 86.4164 121.383 86.5666 121.266L86.2287 120.864C86.1562 120.932 86.0756 120.988 85.9869 121.031C85.8982 121.074 85.7865 121.096 85.6519 121.096C85.5263 121.096 85.4165 121.062 85.3226 120.995C85.2288 120.929 85.1644 120.842 85.1294 120.735H86.6443V120.567C86.6443 120.373 86.6003 120.201 86.5123 120.05C86.4242 119.9 86.3041 119.781 86.152 119.695C85.9998 119.609 85.826 119.566 85.6305 119.566C85.4337 119.566 85.2579 119.609 85.1032 119.696C84.9484 119.783 84.8264 119.901 84.7371 120.051C84.6477 120.201 84.6031 120.372 84.6031 120.563C84.6031 120.758 84.6497 120.931 84.7429 121.083C84.8361 121.236 84.965 121.355 85.1294 121.442C85.2938 121.529 85.4835 121.572 85.6985 121.572ZM85.1177 120.426H86.0694C86.0422 120.313 85.9866 120.222 85.9024 120.152C85.8182 120.083 85.7172 120.048 85.5994 120.048C85.4803 120.048 85.377 120.083 85.2896 120.154C85.2022 120.225 85.1449 120.316 85.1177 120.426ZM88.1923 121.572C88.3749 121.572 88.5374 121.529 88.6798 121.442C88.8222 121.355 88.9342 121.236 89.0158 121.085C89.0974 120.934 89.1382 120.762 89.1382 120.569C89.1382 120.376 89.0974 120.204 89.0158 120.053C88.9342 119.902 88.8222 119.783 88.6798 119.696C88.5374 119.609 88.3749 119.566 88.1923 119.566C88.0706 119.566 87.9573 119.586 87.8524 119.627C87.7475 119.667 87.6543 119.723 87.5727 119.795V118.64H87.0134V121.534H87.5416L87.5552 121.325C87.6368 121.404 87.732 121.465 87.8407 121.508C87.9495 121.551 88.0667 121.572 88.1923 121.572ZM87.7126 120.941C87.8058 121.04 87.9236 121.09 88.066 121.09C88.2085 121.09 88.3263 121.04 88.4195 120.941C88.5128 120.842 88.5594 120.718 88.5594 120.569C88.5594 120.42 88.5128 120.296 88.4195 120.197C88.3263 120.098 88.2085 120.048 88.066 120.048C87.9236 120.048 87.8058 120.098 87.7126 120.197C87.6193 120.296 87.5727 120.42 87.5727 120.569C87.5727 120.718 87.6193 120.842 87.7126 120.941Z" fill="#747B95"/>
<path opacity="0.5" fill-rule="evenodd" clip-rule="evenodd" d="M103.126 120.754C103.13 120.985 103.131 121.244 103.131 121.534H102.537V118.64H103.31L103.951 120.004C103.981 120.078 104.01 120.153 104.039 120.229C104.068 120.304 104.097 120.379 104.124 120.455C104.151 120.377 104.18 120.299 104.21 120.222C104.241 120.145 104.272 120.072 104.304 120.004L104.943 118.64H105.701V121.534H105.107C105.107 121.181 105.11 120.837 105.116 120.502C105.123 120.166 105.136 119.829 105.157 119.492C105.123 119.581 105.088 119.669 105.051 119.757C105.014 119.844 104.976 119.93 104.936 120.015L104.444 121.061H103.792L103.302 120.019C103.262 119.921 103.223 119.825 103.186 119.731C103.148 119.636 103.111 119.541 103.075 119.446C103.089 119.67 103.101 119.886 103.109 120.095C103.117 120.304 103.123 120.524 103.126 120.754ZM107.157 121.507C107.052 121.551 106.938 121.572 106.814 121.572C106.617 121.572 106.456 121.52 106.331 121.414C106.206 121.309 106.144 121.172 106.144 121.003C106.144 120.875 106.181 120.759 106.255 120.658C106.33 120.556 106.432 120.476 106.563 120.417C106.694 120.357 106.844 120.328 107.012 120.328C107.065 120.328 107.121 120.331 107.18 120.338C107.239 120.344 107.298 120.352 107.358 120.363C107.315 120.153 107.161 120.048 106.897 120.048C106.741 120.048 106.583 120.107 106.425 120.224L106.233 119.755C106.368 119.691 106.5 119.643 106.631 119.612C106.762 119.581 106.886 119.566 107.004 119.566C107.192 119.566 107.355 119.601 107.493 119.671C107.63 119.741 107.738 119.84 107.814 119.968C107.89 120.096 107.929 120.246 107.929 120.419V121.534H107.459L107.422 121.327C107.349 121.403 107.261 121.463 107.157 121.507ZM106.975 121.09C106.893 121.09 106.828 121.07 106.778 121.031C106.728 120.992 106.703 120.94 106.703 120.876C106.703 120.805 106.734 120.75 106.795 120.712C106.857 120.673 106.943 120.654 107.053 120.654C107.106 120.654 107.16 120.658 107.215 120.667C107.27 120.676 107.321 120.689 107.369 120.704V120.743C107.369 120.84 107.331 120.923 107.256 120.99C107.18 121.057 107.086 121.09 106.975 121.09ZM108.954 120.683V121.534H108.395V119.604H108.884L108.911 119.88C109.053 119.671 109.247 119.566 109.494 119.566C109.578 119.566 109.665 119.579 109.754 119.604L109.677 120.085C109.602 120.06 109.528 120.048 109.455 120.048C109.305 120.048 109.184 120.103 109.092 120.213C109 120.323 108.954 120.48 108.954 120.683Z" fill="#747B95"/>
<rect opacity="0.25" x="25" y="113.272" width="81" height="0.359223" fill="#747B95"/>
<rect opacity="0.25" x="65.5" y="110.398" width="0.361607" height="2.87379" fill="#747B95"/>
<rect opacity="0.25" x="45.25" y="110.398" width="0.361607" height="2.87379" fill="#747B95"/>
<rect opacity="0.25" x="85.75" y="110.398" width="0.361607" height="2.87379" fill="#747B95"/>
</g>
<g filter="url(#filter1_d_0_136)">
<rect x="25" y="139" width="81" height="53" rx="4" fill="#333950"/>
</g>
<mask id="mask1_0_136" style="mask-type:luminance" maskUnits="userSpaceOnUse" x="25" y="139" width="81" height="53">
<rect x="25" y="139" width="81" height="53" rx="4" fill="white"/>
</mask>
<g mask="url(#mask1_0_136)">
<path fill-rule="evenodd" clip-rule="evenodd" d="M54.1601 172.598V173.486H48.1979V172.598L50.3588 172.284L56.2429 153.884H58.9506L65.1992 172.362L67.2821 172.598V173.486H58.4039V172.598L60.7211 172.336L59.1329 167.292H53.1447L51.7127 172.258L54.1601 172.598ZM53.405 166.377H58.8465L56.0086 157.438L53.405 166.377ZM79.8833 173.931C81.5496 173.931 82.539 173.329 83.1899 171.892L82.7473 171.526C82.2526 172.31 81.9662 172.519 81.5757 172.519C81.081 172.519 80.7686 172.179 80.7686 171.186V164.155C80.7686 160.366 79.2845 158.771 75.5874 158.771C71.5519 158.771 69.2868 160.339 69.0785 162.796C69.2868 163.659 69.9377 164.129 70.875 164.129C71.8643 164.129 72.7496 163.424 72.8277 161.646L73.0099 159.791C73.4004 159.712 73.7389 159.686 74.1034 159.686C76.0821 159.686 76.707 160.496 76.707 163.214V164.809L76.7068 164.809C75.7956 165.044 74.8844 165.279 74.1555 165.488C69.9637 166.717 68.6099 167.998 68.6099 170.376C68.6099 172.571 70.172 173.931 72.4111 173.931C74.4939 173.931 75.4833 173.12 76.8111 171.657C77.2017 173.068 78.165 173.931 79.8833 173.931ZM72.4892 169.853C72.4892 171.421 73.2182 172.153 74.4419 172.153C75.1448 172.153 75.7437 171.814 76.707 170.951V165.515C76.1082 165.671 75.5874 165.828 75.275 165.959C73.4525 166.717 72.4892 167.945 72.4892 169.853Z" fill="#FEFEFE"/>
<path d="M47.7812 175.301V176.753H82.1817V175.301H47.7812Z" fill="#FEFEFE"/>
<g opacity="0.15">
<path d="M0.772339 164.774V166.226H35.1727V164.774H0.772339Z" fill="#FEFEFE"/>
</g>
<g opacity="0.15">
<path d="M94.7902 164.774V166.226H129.191V164.774H94.7902Z" fill="#FEFEFE"/>
</g>
</g>
<g filter="url(#filter2_d_0_136)">
<rect x="115" width="81" height="175" rx="4" fill="#5175FF"/>
</g>
<rect opacity="0.15" x="115" y="65.9421" width="81" height="0.362319" fill="white"/>
<path opacity="0.145996" d="M175.25 32.971C175.25 43.9016 166.407 52.7609 155.5 52.7609C144.593 52.7609 135.75 43.9016 135.75 32.971C135.75 22.0404 144.593 13.1812 155.5 13.1812C166.407 13.1812 175.25 22.0404 175.25 32.971Z" stroke="white" stroke-linejoin="round"/>
<path d="M147.254 51.2736L148.544 48.3416C150.716 49.297 153.071 49.7969 155.5 49.7969C165.053 49.7969 172.797 42.0528 172.797 32.5C172.797 22.9472 165.053 15.2031 155.5 15.2031C145.947 15.2031 138.203 22.9472 138.203 32.5H135C135 21.1782 144.178 12 155.5 12C166.822 12 176 21.1782 176 32.5C176 43.8218 166.822 53 155.5 53C152.625 53 149.831 52.407 147.254 51.2736Z" fill="#5CFCD3"/>
<path fill-rule="evenodd" clip-rule="evenodd" d="M147.127 37.1264C147.725 37.1264 148.249 37.0227 148.697 36.8151C149.145 36.6075 149.495 36.3169 149.745 35.9432C149.996 35.5696 150.121 35.1356 150.121 34.6412C150.121 34.1279 149.988 33.6797 149.723 33.2966C149.457 32.9135 149.089 32.6239 148.618 32.4276C148.999 32.2427 149.297 31.986 149.514 31.6577C149.73 31.3293 149.839 30.95 149.839 30.5198C149.839 30.0744 149.726 29.6848 149.5 29.3507C149.274 29.0167 148.957 28.7573 148.55 28.5723C148.144 28.3874 147.669 28.2949 147.127 28.2949C146.58 28.2949 146.103 28.3874 145.694 28.5723C145.286 28.7573 144.968 29.0167 144.742 29.3507C144.516 29.6848 144.403 30.0744 144.403 30.5198C144.403 30.9538 144.511 31.3341 144.728 31.6605C144.945 31.987 145.245 32.2427 145.629 32.4276C145.162 32.6239 144.796 32.9135 144.53 33.2966C144.265 33.6797 144.132 34.1279 144.132 34.6412C144.132 35.1356 144.257 35.5696 144.508 35.9432C144.758 36.3169 145.108 36.6075 145.556 36.8151C146.004 37.0227 146.528 37.1264 147.127 37.1264ZM147.127 31.6917C146.806 31.6917 146.547 31.5983 146.35 31.4114C146.152 31.2246 146.053 30.9783 146.053 30.6726C146.053 30.3632 146.152 30.116 146.35 29.931C146.547 29.7461 146.806 29.6536 147.127 29.6536C147.443 29.6536 147.7 29.7461 147.898 29.931C148.096 30.116 148.194 30.3632 148.194 30.6726C148.194 30.9783 148.096 31.2246 147.898 31.4114C147.7 31.5983 147.443 31.6917 147.127 31.6917ZM146.146 35.2696C146.393 35.4885 146.72 35.5979 147.127 35.5979C147.533 35.5979 147.86 35.4885 148.107 35.2696C148.354 35.0507 148.477 34.7638 148.477 34.4091C148.477 34.0505 148.354 33.7627 148.107 33.5457C147.86 33.3287 147.533 33.2202 147.127 33.2202C146.72 33.2202 146.393 33.3287 146.146 33.5457C145.9 33.7627 145.776 34.0505 145.776 34.4091C145.776 34.7638 145.9 35.0507 146.146 35.2696ZM154.025 36.9566L156.913 29.6649V28.4648H151.421V29.9933H154.907L152.161 36.9566H154.025ZM161.32 32.2719C161.045 32.3984 160.708 32.4616 160.308 32.4616C159.777 32.4616 159.354 32.354 159.04 32.1389C158.725 31.9238 158.499 31.6596 158.362 31.3463C158.224 31.0331 158.156 30.7293 158.156 30.4349C158.156 30.1405 158.224 29.8367 158.362 29.5234C158.499 29.2102 158.725 28.946 159.04 28.7308C159.354 28.5157 159.777 28.4081 160.308 28.4081C160.708 28.4081 161.045 28.4714 161.32 28.5978C161.595 28.7242 161.817 28.8884 161.986 29.0903C162.156 29.2922 162.278 29.5111 162.354 29.747C162.429 29.9829 162.467 30.2122 162.467 30.4349C162.467 30.6538 162.429 30.8821 162.354 31.1199C162.278 31.3576 162.156 31.5775 161.986 31.7794C161.817 31.9813 161.595 32.1455 161.32 32.2719ZM161.026 36.9623L166.433 28.4534H164.89L159.489 36.9623H161.026ZM159.794 31.0293C159.918 31.1916 160.09 31.2727 160.308 31.2727C160.53 31.2727 160.704 31.1916 160.828 31.0293C160.952 30.867 161.014 30.6689 161.014 30.4349C161.014 30.2009 160.952 30.0027 160.828 29.8404C160.704 29.6781 160.53 29.597 160.308 29.597C160.09 29.597 159.918 29.6781 159.794 29.8404C159.67 30.0027 159.608 30.2009 159.608 30.4349C159.608 30.6689 159.67 30.867 159.794 31.0293ZM165.602 37.0132C166.133 37.0132 166.556 36.9057 166.871 36.6905C167.185 36.4754 167.412 36.2112 167.552 35.898C167.691 35.5847 167.761 35.2809 167.761 34.9865C167.761 34.7676 167.723 34.5402 167.648 34.3043C167.572 34.0684 167.45 33.8486 167.28 33.6448C167.111 33.441 166.889 33.2759 166.614 33.1494C166.339 33.023 166.002 32.9598 165.602 32.9598C165.203 32.9598 164.866 33.023 164.591 33.1494C164.316 33.2759 164.095 33.441 163.927 33.6448C163.76 33.8486 163.638 34.0684 163.563 34.3043C163.487 34.5402 163.45 34.7676 163.45 34.9865C163.45 35.2809 163.518 35.5847 163.656 35.898C163.793 36.2112 164.019 36.4754 164.334 36.6905C164.648 36.9057 165.071 37.0132 165.602 37.0132ZM165.085 35.5838C165.208 35.7442 165.38 35.8244 165.602 35.8244C165.825 35.8244 165.998 35.7442 166.122 35.5838C166.246 35.4234 166.309 35.2262 166.309 34.9922C166.309 34.7544 166.246 34.5544 166.122 34.3921C165.998 34.2298 165.825 34.1486 165.602 34.1486C165.38 34.1486 165.208 34.2298 165.085 34.3921C164.963 34.5544 164.902 34.7544 164.902 34.9922C164.902 35.2262 164.963 35.4234 165.085 35.5838Z" fill="#5CFCD3"/>
<path fill-rule="evenodd" clip-rule="evenodd" d="M148.425 85.336C147.707 86.1238 146.866 86.7961 145.9 87.3528L144.601 85.8738C145.274 85.4822 145.877 85.0411 146.409 84.5505C146.941 84.0598 147.372 83.5432 147.701 83.0007C147.57 83.0337 147.427 83.0597 147.274 83.0786C147.121 83.0974 146.953 83.1069 146.769 83.1069C146.063 83.1069 145.434 82.9583 144.883 82.661C144.333 82.3638 143.901 81.9557 143.587 81.4368C143.274 80.9179 143.118 80.3234 143.118 79.6535C143.118 78.9647 143.281 78.3561 143.609 77.8278C143.936 77.2994 144.386 76.8842 144.958 76.5823C145.53 76.2804 146.183 76.1294 146.917 76.1294C147.68 76.1294 148.345 76.2933 148.913 76.6212C149.48 76.9491 149.919 77.4102 150.23 78.0047C150.541 78.5991 150.696 79.295 150.696 80.0923C150.696 80.9933 150.497 81.8956 150.099 82.799C149.701 83.7025 149.143 84.5481 148.425 85.336ZM145.752 80.9627C146.049 81.2788 146.425 81.4368 146.882 81.4368C147.344 81.4368 147.726 81.2764 148.03 80.9556C148.334 80.6348 148.485 80.2291 148.485 79.7384C148.485 79.2478 148.336 78.8421 148.037 78.5213C147.738 78.2005 147.358 78.0401 146.896 78.0401C146.44 78.0401 146.061 78.2016 145.759 78.5248C145.458 78.848 145.307 79.2572 145.307 79.7526C145.307 80.2432 145.456 80.6466 145.752 80.9627ZM155.852 87.1688C156.6 87.1688 157.255 87.0391 157.815 86.7796C158.375 86.5201 158.812 86.1569 159.125 85.6898C159.438 85.2227 159.595 84.6802 159.595 84.0622C159.595 83.4206 159.429 82.8604 159.097 82.3815C158.765 81.9027 158.305 81.5406 157.716 81.2953C158.192 81.0641 158.565 80.7433 158.836 80.3329C159.106 79.9224 159.242 79.4483 159.242 78.9105C159.242 78.3538 159.101 77.8667 158.818 77.4492C158.536 77.0317 158.14 76.7073 157.632 76.4761C157.123 76.245 156.53 76.1294 155.852 76.1294C155.169 76.1294 154.572 76.245 154.061 76.4761C153.55 76.7073 153.154 77.0317 152.871 77.4492C152.589 77.8667 152.448 78.3538 152.448 78.9105C152.448 79.453 152.583 79.9283 152.854 80.3364C153.124 80.7445 153.5 81.0641 153.98 81.2953C153.396 81.5406 152.938 81.9027 152.606 82.3815C152.275 82.8604 152.109 83.4206 152.109 84.0622C152.109 84.6802 152.265 85.2227 152.578 85.6898C152.891 86.1569 153.328 86.5201 153.888 86.7796C154.449 87.0391 155.103 87.1688 155.852 87.1688ZM154.881 80.025C155.128 80.2586 155.452 80.3753 155.852 80.3753C156.247 80.3753 156.569 80.2586 156.816 80.025C157.063 79.7915 157.187 79.4837 157.187 79.1015C157.187 78.7147 157.063 78.4057 156.816 78.1745C156.569 77.9433 156.247 77.8278 155.852 77.8278C155.452 77.8278 155.128 77.9433 154.881 78.1745C154.633 78.4057 154.51 78.7147 154.51 79.1015C154.51 79.4837 154.633 79.7915 154.881 80.025ZM155.852 85.2581C155.343 85.2581 154.935 85.1213 154.626 84.8477C154.318 84.5741 154.164 84.2155 154.164 83.7721C154.164 83.3239 154.318 82.9642 154.626 82.6929C154.935 82.4216 155.343 82.286 155.852 82.286C156.36 82.286 156.769 82.4216 157.077 82.6929C157.386 82.9642 157.54 83.3239 157.54 83.7721C157.54 84.2155 157.386 84.5741 157.077 84.8477C156.769 85.1213 156.36 85.2581 155.852 85.2581ZM163.253 85.2864V86.9565H161.219V76.3417H163.253V82.7813C163.395 82.5596 163.55 82.3438 163.72 82.1338C163.889 81.9239 164.075 81.701 164.277 81.4651L165.648 79.88H167.872L165.16 83.0573L168.381 86.9565H165.888L163.868 84.5646L163.253 85.2864Z" fill="white"/>
<rect x="126.571" y="102.174" width="5.0625" height="5.07246" rx="2.53125" fill="white"/>
<rect x="137.058" y="102.174" width="47.3705" height="5.07246" rx="2.53623" fill="#7DA7FF"/>
<rect x="126.571" y="114.493" width="5.0625" height="5.07246" rx="2.53125" fill="white"/>
<rect x="137.058" y="114.493" width="30.0134" height="5.07246" rx="2.53623" fill="#7DA7FF"/>
<rect x="126.571" y="126.812" width="5.0625" height="5.07246" rx="2.53125" fill="white"/>
<rect x="137.058" y="126.812" width="47.3705" height="5.07246" rx="2.53623" fill="#7DA7FF"/>
<rect x="126.571" y="139.13" width="5.0625" height="5.07246" rx="2.53125" fill="white"/>
<rect x="137.058" y="139.13" width="28.567" height="5.07246" rx="2.53623" fill="#7DA7FF"/>
<rect x="126.571" y="151.449" width="5.0625" height="5.07246" rx="2.53125" fill="white"/>
<rect x="137.058" y="151.449" width="47.3705" height="5.07246" rx="2.53623" fill="#7DA7FF"/>
<defs>
<filter id="filter0_d_0_136" x="0" y="17" width="131" height="186" filterUnits="userSpaceOnUse" color-interpolation-filters="sRGB">
<feFlood flood-opacity="0" result="BackgroundImageFix"/>
<feColorMatrix in="SourceAlpha" type="matrix" values="0 0 0 0 0 0 0 0 0 0 0 0 0 0 0 0 0 0 127 0" result="hardAlpha"/>
<feMorphology radius="25" operator="erode" in="SourceAlpha" result="effect1_dropShadow_0_136"/>
<feOffset dy="50"/>
<feGaussianBlur stdDeviation="25"/>
<feColorMatrix type="matrix" values="0 0 0 0 0.293478 0 0 0 0 0.35972 0 0 0 0 0.604535 0 0 0 0.247159 0"/>
<feBlend mode="normal" in2="BackgroundImageFix" result="effect1_dropShadow_0_136"/>
<feBlend mode="normal" in="SourceGraphic" in2="effect1_dropShadow_0_136" result="shape"/>
</filter>
<filter id="filter1_d_0_136" x="0" y="139" width="131" height="128" filterUnits="userSpaceOnUse" color-interpolation-filters="sRGB">
<feFlood flood-opacity="0" result="BackgroundImageFix"/>
<feColorMatrix in="SourceAlpha" type="matrix" values="0 0 0 0 0 0 0 0 0 0 0 0 0 0 0 0 0 0 127 0" result="hardAlpha"/>
<feMorphology radius="25" operator="erode" in="SourceAlpha" result="effect1_dropShadow_0_136"/>
<feOffset dy="50"/>
<feGaussianBlur stdDeviation="25"/>
<feColorMatrix type="matrix" values="0 0 0 0 0.293478 0 0 0 0 0.35972 0 0 0 0 0.604535 0 0 0 0.247159 0"/>
<feBlend mode="normal" in2="BackgroundImageFix" result="effect1_dropShadow_0_136"/>
<feBlend mode="normal" in="SourceGraphic" in2="effect1_dropShadow_0_136" result="shape"/>
</filter>
<filter id="filter2_d_0_136" x="90" y="0" width="131" height="250" filterUnits="userSpaceOnUse" color-interpolation-filters="sRGB">
<feFlood flood-opacity="0" result="BackgroundImageFix"/>
<feColorMatrix in="SourceAlpha" type="matrix" values="0 0 0 0 0 0 0 0 0 0 0 0 0 0 0 0 0 0 127 0" result="hardAlpha"/>
<feMorphology radius="25" operator="erode" in="SourceAlpha" result="effect1_dropShadow_0_136"/>
<feOffset dy="50"/>
<feGaussianBlur stdDeviation="25"/>
<feColorMatrix type="matrix" values="0 0 0 0 0.293478 0 0 0 0 0.35972 0 0 0 0 0.604535 0 0 0 0.247159 0"/>
<feBlend mode="normal" in2="BackgroundImageFix" result="effect1_dropShadow_0_136"/>
<feBlend mode="normal" in="SourceGraphic" in2="effect1_dropShadow_0_136" result="shape"/>
</filter>
<linearGradient id="paint0_linear_0_136" x1="11.6833" y1="27.2412" x2="11.6833" y2="113.631" gradientUnits="userSpaceOnUse">
<stop stop-color="#024AFF" stop-opacity="0.148028"/>
<stop offset="1" stop-color="#3B77CF" stop-opacity="0.01"/>
</linearGradient>
</defs>
</svg>
