<svg width="331" height="389" viewBox="0 0 331 389" fill="none" xmlns="http://www.w3.org/2000/svg">
<g filter="url(#filter0_d_0_442)">
<rect x="25" y="28" width="133" height="182" rx="13" fill="white"/>
</g>
<mask id="mask0_0_442" style="mask-type:luminance" maskUnits="userSpaceOnUse" x="25" y="28" width="133" height="182">
<rect x="25" y="28" width="133" height="182" rx="13" fill="white"/>
</mask>
<g mask="url(#mask0_0_442)">
<path fill-rule="evenodd" clip-rule="evenodd" d="M3.1344 169.764L58.5469 151.116L91.5 102.904L125.047 113.511L169.679 44.7917V186.44L3.1344 185.851V169.764Z" fill="url(#paint0_linear_0_442)"/>
<path d="M170.272 42.79V186.44H169.085L169.085 46.7925L125.3 114.209L91.7416 103.598L58.9264 151.61L3.32512 170.322L2.9436 169.206L58.1674 150.621L91.2575 102.209L124.794 112.813L170.272 42.79Z" fill="#5175FF"/>
<rect opacity="0.152227" x="91.5" y="28" width="0.59375" height="147.249" fill="#5175FF"/>
<rect opacity="0.152227" x="58.25" y="28" width="0.59375" height="147.249" fill="#5175FF"/>
<rect opacity="0.152227" x="125.344" y="28" width="0.59375" height="147.249" fill="#5175FF"/>
<ellipse cx="91.5" cy="102.803" rx="3.5625" ry="3.53398" fill="#5175FF"/>
<path fill-rule="evenodd" clip-rule="evenodd" d="M102.188 102.803C102.188 96.9473 97.4025 92.2007 91.5 92.2007C85.5975 92.2007 80.8125 96.9473 80.8125 102.803C80.8125 108.658 85.5975 113.405 91.5 113.405C97.4025 113.405 102.188 108.658 102.188 102.803ZM81.4062 102.803C81.4062 97.2726 85.9254 92.7897 91.5 92.7897C97.0746 92.7897 101.594 97.2726 101.594 102.803C101.594 108.333 97.0746 112.816 91.5 112.816C85.9254 112.816 81.4062 108.333 81.4062 102.803Z" fill="#5175FF"/>
<ellipse cx="58.25" cy="151.1" rx="3.5625" ry="3.53398" fill="#5175FF"/>
<ellipse cx="125.344" cy="113.405" rx="3.5625" ry="3.53398" fill="#5175FF"/>
<ellipse cx="158" cy="63.3399" rx="3.5625" ry="3.53398" fill="#5175FF"/>
<ellipse cx="25" cy="162.291" rx="3.5625" ry="3.53398" fill="#5175FF"/>
<path opacity="0.5" fill-rule="evenodd" clip-rule="evenodd" d="M87.8453 200.132C87.5466 200.402 87.0783 200.537 86.4405 200.537L86.3767 199.715C87.0039 199.715 87.3175 199.45 87.3175 198.92V194.653H88.2934V198.86C88.2934 199.438 88.144 199.862 87.8453 200.132ZM90.6836 199.354C90.5124 199.426 90.3248 199.461 90.1207 199.461C89.7975 199.461 89.5334 199.375 89.3282 199.202C89.123 199.029 89.0205 198.804 89.0205 198.528C89.0205 198.317 89.0816 198.129 89.2038 197.962C89.3261 197.795 89.4946 197.663 89.7093 197.566C89.924 197.469 90.1696 197.421 90.446 197.421C90.5332 197.421 90.6251 197.426 90.7218 197.437C90.8186 197.447 90.9158 197.461 91.0136 197.478C90.9435 197.134 90.6915 196.962 90.2578 196.962C90.0006 196.962 89.7423 197.058 89.4829 197.25L89.1672 196.481C89.3883 196.376 89.6062 196.298 89.8209 196.247C90.0357 196.197 90.2398 196.171 90.4332 196.171C90.7415 196.171 91.0089 196.229 91.2353 196.344C91.4617 196.459 91.6376 196.621 91.7631 196.831C91.8885 197.041 91.9512 197.287 91.9512 197.57V199.398H91.1795L91.1189 199.06C90.9998 199.184 90.8547 199.282 90.6836 199.354ZM90.3854 198.671C90.2514 198.671 90.1436 198.638 90.0617 198.574C89.9798 198.51 89.9389 198.425 89.9389 198.319C89.9389 198.203 89.9894 198.114 90.0904 198.05C90.1914 197.987 90.3322 197.956 90.513 197.956C90.6001 197.956 90.6889 197.963 90.7792 197.978C90.8696 197.992 90.9541 198.013 91.0328 198.038V198.101C91.0328 198.261 90.9706 198.396 90.8462 198.506C90.7218 198.616 90.5682 198.671 90.3854 198.671ZM93.6351 197.794V199.398H92.7166V196.235H93.5203L93.5585 196.621C93.684 196.477 93.8344 196.366 94.0098 196.288C94.1852 196.21 94.3781 196.171 94.5886 196.171C94.9607 196.171 95.2573 196.293 95.4784 196.537C95.6995 196.78 95.81 197.119 95.81 197.554V199.398H94.8884V197.731C94.8884 197.218 94.6949 196.962 94.308 196.962C94.1081 196.962 93.946 197.035 93.8216 197.181C93.6973 197.326 93.6351 197.531 93.6351 197.794Z" fill="#747B95"/>
<path opacity="0.5" fill-rule="evenodd" clip-rule="evenodd" d="M54.101 199.404C55.0407 199.404 55.7625 199.197 56.2663 198.781C56.7702 198.366 57.0222 197.78 57.0222 197.025C57.0222 196.272 56.7702 195.69 56.2663 195.277C55.7625 194.865 55.0407 194.659 54.101 194.659H52.5957V199.404H54.101ZM54.1233 198.55H53.5716V195.513H54.1233C54.7398 195.513 55.2123 195.645 55.5408 195.909C55.8693 196.172 56.0335 196.544 56.0335 197.025C56.0335 197.508 55.8693 197.883 55.5408 198.15C55.2123 198.417 54.7398 198.55 54.1233 198.55ZM59.8652 199.354C59.6239 199.425 59.3927 199.461 59.1716 199.461C58.8187 199.461 58.5072 199.39 58.2372 199.248C57.9672 199.105 57.7556 198.909 57.6026 198.659C57.4495 198.409 57.373 198.125 57.373 197.807C57.373 197.492 57.4463 197.212 57.593 196.967C57.7397 196.721 57.9401 196.527 58.1941 196.385C58.4482 196.242 58.7368 196.171 59.06 196.171C59.381 196.171 59.6664 196.242 59.9163 196.383C60.1661 196.524 60.3633 196.718 60.5078 196.965C60.6524 197.212 60.7247 197.495 60.7247 197.813V198.088H58.2372C58.2946 198.263 58.4004 198.406 58.5545 198.515C58.7087 198.625 58.8888 198.68 59.0951 198.68C59.3162 198.68 59.4995 198.644 59.6452 198.574C59.7908 198.503 59.9232 198.412 60.0422 198.3L60.5971 198.958C60.3505 199.15 60.1065 199.282 59.8652 199.354ZM59.7807 197.582H58.2181C58.2627 197.401 58.3568 197.252 58.5003 197.136C58.6438 197.02 58.8134 196.962 59.009 196.962C59.2024 196.962 59.3683 197.019 59.5065 197.133C59.6446 197.247 59.7361 197.396 59.7807 197.582ZM63.5709 199.338C63.3552 199.42 63.1208 199.461 62.8678 199.461C62.5297 199.461 62.2283 199.39 61.9636 199.248C61.699 199.105 61.4901 198.91 61.337 198.662C61.1839 198.415 61.1074 198.133 61.1074 197.816C61.1074 197.5 61.1839 197.218 61.337 196.97C61.4901 196.722 61.699 196.527 61.9636 196.385C62.2283 196.242 62.5297 196.171 62.8678 196.171C63.1208 196.171 63.3552 196.212 63.5709 196.294C63.7867 196.377 63.9722 196.492 64.1274 196.639L63.4801 197.244C63.327 197.056 63.1229 196.962 62.8678 196.962C62.6339 196.962 62.4404 197.043 62.2873 197.206C62.1343 197.368 62.0577 197.572 62.0577 197.816C62.0577 198.061 62.1343 198.264 62.2873 198.427C62.4404 198.589 62.6339 198.67 62.8678 198.67C63.1229 198.67 63.327 198.576 63.4801 198.389L64.1274 198.993C63.9722 199.141 63.7867 199.256 63.5709 199.338Z" fill="#747B95"/>
<path opacity="0.5" fill-rule="evenodd" clip-rule="evenodd" d="M20.1573 196.203V199.398H19.2006V194.653H20.17L22.6256 197.842V194.653H23.6015V199.398H22.6161L20.1573 196.203ZM26.7842 199.248C26.5291 199.39 26.2378 199.461 25.9104 199.461C25.583 199.461 25.2912 199.39 25.035 199.248C24.7788 199.106 24.5768 198.91 24.4291 198.663C24.2813 198.415 24.2074 198.133 24.2074 197.816C24.2074 197.5 24.2813 197.218 24.4291 196.97C24.5768 196.722 24.7788 196.527 25.035 196.385C25.2912 196.243 25.583 196.171 25.9104 196.171C26.2378 196.171 26.5291 196.243 26.7842 196.385C27.0393 196.527 27.2408 196.722 27.3885 196.97C27.5363 197.218 27.6102 197.5 27.6102 197.816C27.6102 198.133 27.5363 198.415 27.3885 198.663C27.2408 198.91 27.0393 199.106 26.7842 199.248ZM25.9104 198.671C25.6765 198.671 25.4831 198.589 25.33 198.427C25.1769 198.265 25.1004 198.061 25.1004 197.816C25.1004 197.572 25.1769 197.368 25.33 197.206C25.4831 197.043 25.6765 196.962 25.9104 196.962C26.1443 196.962 26.3377 197.043 26.4908 197.206C26.6439 197.368 26.7204 197.572 26.7204 197.816C26.7204 198.061 26.6439 198.265 26.4908 198.427C26.3377 198.589 26.1443 198.671 25.9104 198.671ZM30.2794 196.235H31.2457L29.9861 199.398H29.0931L27.7696 196.235H28.7678L29.345 197.775C29.3748 197.855 29.4083 197.972 29.4455 198.126C29.4827 198.28 29.5119 198.42 29.5332 198.544H29.546C29.5715 198.42 29.6039 198.281 29.6432 198.13C29.6826 197.978 29.7171 197.86 29.7469 197.775L30.2794 196.235Z" fill="#747B95"/>
<path opacity="0.5" fill-rule="evenodd" clip-rule="evenodd" d="M120.386 199.398V197.386H122.229V196.532H120.386V195.507H122.357V194.653H119.41V199.398H120.386ZM124.665 199.461C124.887 199.461 125.118 199.426 125.359 199.354C125.6 199.282 125.844 199.15 126.091 198.958L125.536 198.3C125.417 198.412 125.285 198.503 125.139 198.574C124.993 198.645 124.81 198.68 124.589 198.68C124.383 198.68 124.202 198.625 124.048 198.516C123.894 198.406 123.788 198.264 123.731 198.088H126.218V197.813C126.218 197.495 126.146 197.212 126.002 196.965C125.857 196.719 125.66 196.525 125.41 196.383C125.16 196.242 124.875 196.171 124.554 196.171C124.231 196.171 123.942 196.243 123.688 196.385C123.434 196.527 123.234 196.721 123.087 196.967C122.94 197.213 122.867 197.493 122.867 197.807C122.867 198.125 122.943 198.41 123.096 198.659C123.249 198.909 123.461 199.106 123.731 199.248C124.001 199.39 124.312 199.461 124.665 199.461ZM123.712 197.582H125.275C125.23 197.397 125.138 197.247 125 197.133C124.862 197.019 124.696 196.962 124.503 196.962C124.307 196.962 124.138 197.02 123.994 197.136C123.851 197.252 123.757 197.401 123.712 197.582ZM128.76 199.461C129.06 199.461 129.327 199.39 129.561 199.248C129.795 199.106 129.978 198.91 130.112 198.663C130.246 198.415 130.313 198.133 130.313 197.816C130.313 197.5 130.246 197.218 130.112 196.97C129.978 196.722 129.795 196.527 129.561 196.385C129.327 196.243 129.06 196.171 128.76 196.171C128.56 196.171 128.374 196.205 128.202 196.271C128.03 196.337 127.877 196.43 127.743 196.548V194.653H126.824V199.398H127.692L127.714 199.057C127.848 199.185 128.004 199.285 128.183 199.355C128.362 199.426 128.554 199.461 128.76 199.461ZM127.972 198.427C128.126 198.589 128.319 198.671 128.553 198.671C128.787 198.671 128.98 198.589 129.133 198.427C129.286 198.265 129.363 198.061 129.363 197.816C129.363 197.572 129.286 197.368 129.133 197.206C128.98 197.043 128.787 196.962 128.553 196.962C128.319 196.962 128.126 197.043 127.972 197.206C127.819 197.368 127.743 197.572 127.743 197.816C127.743 198.061 127.819 198.265 127.972 198.427Z" fill="#747B95"/>
<path opacity="0.5" fill-rule="evenodd" clip-rule="evenodd" d="M153.282 198.12C153.287 198.498 153.29 198.924 153.29 199.398H152.314V194.653H153.583L154.635 196.889C154.684 197.012 154.733 197.135 154.781 197.258C154.828 197.381 154.875 197.505 154.919 197.63C154.964 197.501 155.011 197.373 155.061 197.247C155.111 197.12 155.163 197.001 155.216 196.889L156.265 194.653H157.509V199.398H156.533C156.533 198.82 156.538 198.256 156.549 197.706C156.56 197.155 156.582 196.604 156.616 196.051C156.561 196.197 156.503 196.341 156.442 196.485C156.382 196.628 156.318 196.769 156.252 196.908L155.446 198.623H154.374L153.57 196.915C153.504 196.754 153.441 196.597 153.379 196.442C153.317 196.287 153.257 196.131 153.197 195.975C153.221 196.342 153.239 196.697 153.253 197.04C153.267 197.382 153.276 197.743 153.282 198.12ZM159.899 199.354C159.728 199.426 159.54 199.461 159.336 199.461C159.013 199.461 158.749 199.375 158.544 199.202C158.339 199.029 158.236 198.804 158.236 198.528C158.236 198.317 158.297 198.129 158.419 197.962C158.542 197.795 158.71 197.663 158.925 197.566C159.14 197.469 159.385 197.421 159.661 197.421C159.749 197.421 159.841 197.426 159.937 197.437C160.034 197.447 160.131 197.461 160.229 197.478C160.159 197.134 159.907 196.962 159.473 196.962C159.216 196.962 158.958 197.058 158.698 197.25L158.383 196.481C158.604 196.376 158.822 196.298 159.036 196.247C159.251 196.197 159.455 196.171 159.649 196.171C159.957 196.171 160.224 196.229 160.451 196.344C160.677 196.459 160.853 196.621 160.979 196.831C161.104 197.041 161.167 197.287 161.167 197.57V199.398H160.395L160.334 199.06C160.215 199.184 160.07 199.282 159.899 199.354ZM159.601 198.671C159.467 198.671 159.359 198.638 159.277 198.574C159.195 198.51 159.154 198.425 159.154 198.319C159.154 198.203 159.205 198.114 159.306 198.05C159.407 197.987 159.548 197.956 159.728 197.956C159.816 197.956 159.904 197.963 159.995 197.978C160.085 197.992 160.17 198.013 160.248 198.038V198.101C160.248 198.261 160.186 198.396 160.062 198.506C159.937 198.616 159.784 198.671 159.601 198.671ZM162.851 198.003V199.398H161.932V196.235H162.736L162.78 196.687C163.012 196.343 163.331 196.171 163.737 196.171C163.875 196.171 164.018 196.192 164.164 196.235L164.037 197.022C163.914 196.982 163.792 196.962 163.673 196.962C163.427 196.962 163.228 197.052 163.077 197.233C162.926 197.413 162.851 197.67 162.851 198.003Z" fill="#747B95"/>
<rect opacity="0.25" x="25" y="185.851" width="133" height="0.588997" fill="#747B95"/>
<rect opacity="0.25" x="91.5" y="181.139" width="0.59375" height="4.71197" fill="#747B95"/>
<rect opacity="0.25" x="58.25" y="181.139" width="0.59375" height="4.71197" fill="#747B95"/>
<rect opacity="0.25" x="124.75" y="181.139" width="0.59375" height="4.71197" fill="#747B95"/>
</g>
<g filter="url(#filter1_d_0_442)">
<rect x="25" y="228" width="133" height="86" rx="13" fill="#333950"/>
</g>
<mask id="mask1_0_442" style="mask-type:luminance" maskUnits="userSpaceOnUse" x="25" y="228" width="133" height="86">
<rect x="25" y="228" width="133" height="86" rx="13" fill="white"/>
</mask>
<g mask="url(#mask1_0_442)">
<path fill-rule="evenodd" clip-rule="evenodd" d="M72.88 282.517V283.959H63.0902V282.517L66.6385 282.008L76.3 252.151H80.746L91.006 282.135L94.426 282.517V283.959H79.8482V282.517L83.653 282.093L81.0452 273.907H71.2127L68.8615 281.966L72.88 282.517ZM71.6402 272.423H80.575L75.9152 257.919L71.6402 272.423ZM115.117 284.68C117.853 284.68 119.477 283.704 120.546 281.372L119.819 280.778C119.007 282.05 118.537 282.39 117.896 282.39C117.083 282.39 116.57 281.838 116.57 280.227V268.818C116.57 262.669 114.134 260.081 108.063 260.081C101.437 260.081 97.7177 262.626 97.3757 266.613C97.7177 268.012 98.7865 268.776 100.325 268.776C101.95 268.776 103.403 267.631 103.532 264.747L103.831 261.736C104.472 261.608 105.028 261.566 105.626 261.566C108.875 261.566 109.901 262.881 109.901 267.291V269.878C108.405 270.26 106.909 270.642 105.712 270.981C98.8292 272.974 96.6062 275.053 96.6062 278.912C96.6062 282.474 99.1712 284.68 102.848 284.68C106.268 284.68 107.892 283.365 110.072 280.99C110.714 283.28 112.295 284.68 115.117 284.68ZM102.976 278.064C102.976 280.608 104.173 281.796 106.182 281.796C107.336 281.796 108.32 281.245 109.901 279.845V271.024C108.918 271.278 108.063 271.532 107.55 271.744C104.558 272.974 102.976 274.968 102.976 278.064Z" fill="#FEFEFE"/>
<path d="M62.4062 286.904V289.26H118.891V286.904H62.4062Z" fill="#FEFEFE"/>
<g opacity="0.15">
<path d="M-14.7812 269.822V272.178H41.7034V269.822H-14.7812Z" fill="#FEFEFE"/>
</g>
<g opacity="0.15">
<path d="M139.594 269.822V272.178H196.078V269.822H139.594Z" fill="#FEFEFE"/>
</g>
</g>
<g filter="url(#filter2_d_0_442)">
<rect x="173" width="133" height="286" rx="13" fill="#5175FF"/>
</g>
<rect opacity="0.15" x="173" y="107.768" width="133" height="0.592133" fill="white"/>
<path opacity="0.145996" d="M272.25 53.884C272.25 71.92 257.589 86.5434 239.5 86.5434C221.411 86.5434 206.75 71.92 206.75 53.884C206.75 35.848 221.411 21.2246 239.5 21.2246C257.589 21.2246 272.25 35.848 272.25 53.884Z" stroke="white" stroke-linejoin="round"/>
<g clip-path="url(#clip0_0_442)">
<path d="M226.025 84.1789L228.132 79.3875C231.682 80.9488 235.531 81.7656 239.5 81.7656C255.111 81.7656 267.766 69.1107 267.766 53.5C267.766 37.8893 255.111 25.2344 239.5 25.2344C223.889 25.2344 211.234 37.8893 211.234 53.5H206C206 34.9985 220.998 20 239.5 20C258.002 20 273 34.9985 273 53.5C273 72.0015 258.002 87 239.5 87C234.802 87 230.236 86.031 226.025 84.1789Z" fill="#5CFCD3"/>
</g>
<path fill-rule="evenodd" clip-rule="evenodd" d="M225.751 62.6749C226.734 62.6749 227.594 62.5053 228.33 62.1661C229.066 61.8268 229.64 61.3519 230.051 60.7412C230.462 60.1306 230.668 59.4213 230.668 58.6133C230.668 57.7744 230.45 57.042 230.014 56.4159C229.578 55.7898 228.973 55.3164 228.2 54.9957C228.825 54.6935 229.315 54.274 229.671 53.7374C230.026 53.2008 230.204 52.5809 230.204 51.8778C230.204 51.1499 230.019 50.5131 229.647 49.9672C229.276 49.4213 228.757 48.9973 228.089 48.6951C227.421 48.3928 226.642 48.2417 225.751 48.2417C224.854 48.2417 224.07 48.3928 223.399 48.6951C222.728 48.9973 222.207 49.4213 221.836 49.9672C221.465 50.5131 221.279 51.1499 221.279 51.8778C221.279 52.5871 221.457 53.2085 221.813 53.7421C222.168 54.2756 222.662 54.6935 223.292 54.9957C222.526 55.3164 221.924 55.7898 221.488 56.4159C221.052 57.042 220.834 57.7744 220.834 58.6133C220.834 59.4213 221.04 60.1306 221.451 60.7412C221.862 61.3519 222.436 61.8268 223.172 62.1661C223.908 62.5053 224.768 62.6749 225.751 62.6749ZM225.751 53.7929C225.225 53.7929 224.8 53.6403 224.475 53.335C224.151 53.0296 223.988 52.6272 223.988 52.1276C223.988 51.6218 224.151 51.2178 224.475 50.9155C224.8 50.6133 225.225 50.4622 225.751 50.4622C226.271 50.4622 226.693 50.6133 227.017 50.9155C227.342 51.2178 227.504 51.6218 227.504 52.1276C227.504 52.6272 227.342 53.0296 227.017 53.335C226.693 53.6403 226.271 53.7929 225.751 53.7929ZM224.141 59.6403C224.546 59.998 225.083 60.1769 225.751 60.1769C226.419 60.1769 226.955 59.998 227.361 59.6403C227.766 59.2825 227.968 58.8137 227.968 58.2339C227.968 57.648 227.766 57.1777 227.361 56.823C226.955 56.4683 226.419 56.291 225.751 56.291C225.083 56.291 224.546 56.4683 224.141 56.823C223.736 57.1777 223.534 57.648 223.534 58.2339C223.534 58.8137 223.736 59.2825 224.141 59.6403ZM237.079 62.3974L241.819 50.4807V48.5193H232.802V51.0173H238.526L234.017 62.3974H237.079ZM249.056 54.7413C248.604 54.9479 248.051 55.0512 247.395 55.0512C246.523 55.0512 245.829 54.8754 245.312 54.5239C244.796 54.1723 244.425 53.7405 244.199 53.2286C243.973 52.7166 243.86 52.2201 243.86 51.739C243.86 51.2579 243.973 50.7613 244.199 50.2494C244.425 49.7375 244.796 49.3057 245.312 48.9541C245.829 48.6025 246.523 48.4267 247.395 48.4267C248.051 48.4267 248.604 48.5301 249.056 48.7367C249.507 48.9433 249.872 49.2116 250.15 49.5416C250.429 49.8716 250.63 50.2294 250.753 50.6149C250.877 51.0004 250.939 51.3751 250.939 51.739C250.939 52.0967 250.877 52.4699 250.753 52.8585C250.63 53.2471 250.429 53.6064 250.15 53.9363C249.872 54.2663 249.507 54.5346 249.056 54.7413ZM248.573 62.4066L257.452 48.5008H254.919L246.05 62.4066H248.573ZM246.551 52.7104C246.755 52.9757 247.036 53.1083 247.395 53.1083C247.76 53.1083 248.044 52.9757 248.249 52.7104C248.453 52.4452 248.555 52.1214 248.555 51.739C248.555 51.3566 248.453 51.0327 248.249 50.7675C248.044 50.5023 247.76 50.3697 247.395 50.3697C247.036 50.3697 246.755 50.5023 246.551 50.7675C246.347 51.0327 246.245 51.3566 246.245 51.739C246.245 52.1214 246.347 52.4452 246.551 52.7104ZM256.088 62.4899C256.96 62.4899 257.654 62.3141 258.171 61.9625C258.687 61.6109 259.06 61.1792 259.289 60.6672C259.517 60.1553 259.632 59.6588 259.632 59.1776C259.632 58.8199 259.57 58.4483 259.446 58.0628C259.323 57.6773 259.122 57.318 258.843 56.9849C258.565 56.6518 258.2 56.382 257.749 56.1753C257.297 55.9687 256.743 55.8654 256.088 55.8654C255.432 55.8654 254.879 55.9687 254.427 56.1753C253.976 56.382 253.612 56.6518 253.337 56.9849C253.062 57.318 252.862 57.6773 252.739 58.0628C252.615 58.4483 252.553 58.8199 252.553 59.1776C252.553 59.6588 252.666 60.1553 252.892 60.6672C253.118 61.1792 253.489 61.6109 254.005 61.9625C254.522 62.3141 255.216 62.4899 256.088 62.4899ZM255.239 60.1537C255.44 60.4159 255.723 60.547 256.088 60.547C256.453 60.547 256.737 60.4159 256.941 60.1537C257.146 59.8916 257.248 59.5693 257.248 59.1869C257.248 58.7983 257.146 58.4714 256.941 58.2062C256.737 57.941 256.453 57.8083 256.088 57.8083C255.723 57.8083 255.44 57.941 255.239 58.2062C255.038 58.4714 254.938 58.7983 254.938 59.1869C254.938 59.5693 255.038 59.8916 255.239 60.1537Z" fill="#5CFCD3"/>
<path fill-rule="evenodd" clip-rule="evenodd" d="M227.884 139.463C226.705 140.751 225.323 141.85 223.738 142.759L221.604 140.342C222.71 139.702 223.699 138.982 224.573 138.18C225.446 137.378 226.154 136.534 226.695 135.647C226.478 135.701 226.245 135.743 225.993 135.774C225.742 135.805 225.466 135.82 225.164 135.82C224.005 135.82 222.972 135.578 222.068 135.092C221.163 134.606 220.454 133.939 219.94 133.091C219.426 132.243 219.169 131.271 219.169 130.177C219.169 129.051 219.437 128.056 219.975 127.193C220.512 126.329 221.25 125.651 222.19 125.157C223.129 124.664 224.202 124.417 225.408 124.417C226.66 124.417 227.752 124.685 228.684 125.221C229.615 125.757 230.336 126.511 230.847 127.482C231.357 128.453 231.612 129.591 231.612 130.894C231.612 132.366 231.285 133.841 230.632 135.317C229.979 136.794 229.063 138.176 227.884 139.463ZM223.494 132.316C223.981 132.833 224.6 133.091 225.35 133.091C226.107 133.091 226.736 132.829 227.234 132.305C227.733 131.78 227.982 131.117 227.982 130.315C227.982 129.514 227.737 128.851 227.246 128.326C226.755 127.802 226.131 127.54 225.373 127.54C224.623 127.54 224.001 127.804 223.506 128.332C223.011 128.86 222.764 129.529 222.764 130.339C222.764 131.14 223.007 131.8 223.494 132.316ZM240.078 142.459C241.307 142.459 242.381 142.247 243.301 141.823C244.221 141.399 244.938 140.805 245.453 140.042C245.967 139.278 246.224 138.392 246.224 137.382C246.224 136.333 245.951 135.418 245.406 134.635C244.861 133.852 244.105 133.261 243.139 132.86C243.92 132.482 244.533 131.958 244.977 131.287C245.422 130.616 245.644 129.841 245.644 128.962C245.644 128.053 245.412 127.256 244.948 126.574C244.484 125.892 243.835 125.362 243 124.984C242.165 124.606 241.191 124.417 240.078 124.417C238.957 124.417 237.977 124.606 237.138 124.984C236.299 125.362 235.648 125.892 235.184 126.574C234.72 127.256 234.488 128.053 234.488 128.962C234.488 129.849 234.71 130.626 235.155 131.293C235.599 131.96 236.216 132.482 237.004 132.86C236.046 133.261 235.294 133.852 234.749 134.635C234.204 135.418 233.931 136.333 233.931 137.382C233.931 138.392 234.188 139.278 234.702 140.042C235.217 140.805 235.934 141.399 236.854 141.823C237.774 142.247 238.848 142.459 240.078 142.459ZM238.483 130.784C238.889 131.165 239.42 131.356 240.078 131.356C240.727 131.356 241.255 131.165 241.66 130.784C242.066 130.402 242.269 129.899 242.269 129.275C242.269 128.642 242.066 128.137 241.66 127.76C241.255 127.382 240.727 127.193 240.078 127.193C239.42 127.193 238.889 127.382 238.483 127.76C238.077 128.137 237.874 128.642 237.874 129.275C237.874 129.899 238.077 130.402 238.483 130.784ZM240.078 139.336C239.243 139.336 238.572 139.113 238.065 138.665C237.559 138.218 237.306 137.632 237.306 136.908C237.306 136.175 237.559 135.587 238.065 135.144C238.572 134.701 239.243 134.479 240.078 134.479C240.912 134.479 241.583 134.701 242.09 135.144C242.596 135.587 242.849 136.175 242.849 136.908C242.849 137.632 242.596 138.218 242.09 138.665C241.583 139.113 240.912 139.336 240.078 139.336ZM252.231 139.382V142.112H248.891V124.764H252.231V135.288C252.463 134.926 252.718 134.573 252.996 134.23C253.275 133.887 253.58 133.523 253.912 133.137L256.162 130.547H259.815L255.362 135.739L260.65 142.112H256.556L253.24 138.203L252.231 139.382Z" fill="white"/>
<rect x="192" y="166.981" width="8.3125" height="8.28986" rx="4.14493" fill="white"/>
<rect x="209.219" y="166.981" width="77.7812" height="8.28986" rx="4.14493" fill="#7DA7FF"/>
<rect x="192" y="187.114" width="8.3125" height="8.28986" rx="4.14493" fill="white"/>
<rect x="209.219" y="187.114" width="49.2812" height="8.28986" rx="4.14493" fill="#7DA7FF"/>
<rect x="192" y="207.246" width="8.3125" height="8.28986" rx="4.14493" fill="white"/>
<rect x="209.219" y="207.246" width="77.7812" height="8.28986" rx="4.14493" fill="#7DA7FF"/>
<rect x="192" y="227.379" width="8.3125" height="8.28986" rx="4.14493" fill="white"/>
<rect x="209.219" y="227.379" width="46.9062" height="8.28986" rx="4.14493" fill="#7DA7FF"/>
<rect x="192" y="247.511" width="8.3125" height="8.28986" rx="4.14493" fill="white"/>
<rect x="209.219" y="247.511" width="77.7812" height="8.28986" rx="4.14493" fill="#7DA7FF"/>
<defs>
<filter id="filter0_d_0_442" x="0" y="28" width="183" height="257" filterUnits="userSpaceOnUse" color-interpolation-filters="sRGB">
<feFlood flood-opacity="0" result="BackgroundImageFix"/>
<feColorMatrix in="SourceAlpha" type="matrix" values="0 0 0 0 0 0 0 0 0 0 0 0 0 0 0 0 0 0 127 0" result="hardAlpha"/>
<feMorphology radius="25" operator="erode" in="SourceAlpha" result="effect1_dropShadow_0_442"/>
<feOffset dy="50"/>
<feGaussianBlur stdDeviation="25"/>
<feColorMatrix type="matrix" values="0 0 0 0 0.293478 0 0 0 0 0.35972 0 0 0 0 0.604535 0 0 0 0.247159 0"/>
<feBlend mode="normal" in2="BackgroundImageFix" result="effect1_dropShadow_0_442"/>
<feBlend mode="normal" in="SourceGraphic" in2="effect1_dropShadow_0_442" result="shape"/>
</filter>
<filter id="filter1_d_0_442" x="0" y="228" width="183" height="161" filterUnits="userSpaceOnUse" color-interpolation-filters="sRGB">
<feFlood flood-opacity="0" result="BackgroundImageFix"/>
<feColorMatrix in="SourceAlpha" type="matrix" values="0 0 0 0 0 0 0 0 0 0 0 0 0 0 0 0 0 0 127 0" result="hardAlpha"/>
<feMorphology radius="25" operator="erode" in="SourceAlpha" result="effect1_dropShadow_0_442"/>
<feOffset dy="50"/>
<feGaussianBlur stdDeviation="25"/>
<feColorMatrix type="matrix" values="0 0 0 0 0.293478 0 0 0 0 0.35972 0 0 0 0 0.604535 0 0 0 0.247159 0"/>
<feBlend mode="normal" in2="BackgroundImageFix" result="effect1_dropShadow_0_442"/>
<feBlend mode="normal" in="SourceGraphic" in2="effect1_dropShadow_0_442" result="shape"/>
</filter>
<filter id="filter2_d_0_442" x="148" y="0" width="183" height="361" filterUnits="userSpaceOnUse" color-interpolation-filters="sRGB">
<feFlood flood-opacity="0" result="BackgroundImageFix"/>
<feColorMatrix in="SourceAlpha" type="matrix" values="0 0 0 0 0 0 0 0 0 0 0 0 0 0 0 0 0 0 127 0" result="hardAlpha"/>
<feMorphology radius="25" operator="erode" in="SourceAlpha" result="effect1_dropShadow_0_442"/>
<feOffset dy="50"/>
<feGaussianBlur stdDeviation="25"/>
<feColorMatrix type="matrix" values="0 0 0 0 0.293478 0 0 0 0 0.35972 0 0 0 0 0.604535 0 0 0 0.247159 0"/>
<feBlend mode="normal" in2="BackgroundImageFix" result="effect1_dropShadow_0_442"/>
<feBlend mode="normal" in="SourceGraphic" in2="effect1_dropShadow_0_442" result="shape"/>
</filter>
<linearGradient id="paint0_linear_0_442" x1="3.1344" y1="44.7917" x2="3.1344" y2="186.44" gradientUnits="userSpaceOnUse">
<stop stop-color="#024AFF" stop-opacity="0.148028"/>
<stop offset="1" stop-color="#3B77CF" stop-opacity="0.01"/>
</linearGradient>
<clipPath id="clip0_0_442">
<rect width="67" height="67" fill="white" transform="translate(206 20)"/>
</clipPath>
</defs>
</svg>
