<svg width="1440" height="603" viewBox="0 0 1440 603" fill="none" xmlns="http://www.w3.org/2000/svg">
<rect width="1440" height="603" fill="#25293A"/>
<mask id="mask0_0_1071" style="mask-type:luminance" maskUnits="userSpaceOnUse" x="0" y="0" width="1440" height="603">
<rect width="1440" height="603" fill="white"/>
</mask>
<g mask="url(#mask0_0_1071)">
<g opacity="0.15">
<circle cx="316" cy="404" r="221.5" transform="rotate(180 316 404)" stroke="white"/>
<circle cx="316" cy="404" r="411.5" transform="rotate(180 316 404)" stroke="white"/>
<circle cx="316.5" cy="403.5" r="650" transform="rotate(180 316.5 403.5)" stroke="white"/>
<circle cx="316" cy="404" r="719.5" transform="rotate(180 316 404)" stroke="white"/>
<circle cx="316" cy="404" r="1017.5" transform="rotate(180 316 404)" stroke="white"/>
<circle cx="316.5" cy="403.5" r="156" transform="rotate(180 316.5 403.5)" stroke="white"/>
<circle cx="375" cy="547" r="12" transform="rotate(180 375 547)" fill="white"/>
<circle cx="3" cy="138" r="12" transform="rotate(180 3 138)" fill="white"/>
<circle cx="950" cy="259" r="12" transform="rotate(180 950 259)" fill="white"/>
</g>
</g>
</svg>
